<svg xmlns="http://www.w3.org/2000/svg" width="64px" height ="64px">
<path fill="#005EAA" d="M0,0h64v64H0V0z"/>
<g>
<path fill="#FFFFFF" d="M37.957,11.471L7.552,41.876c0,0,1.741,5.983,5.657,9.899c3.862,3.862,9.9,5.657,9.9,5.657l18.52-18.52l8.351-8.351v0l3.535-3.535c0,0-3.555-5.677-6.718-8.839C43.595,14.987,37.957,11.471,37.957,11.471z M40.853,38.274c-1.417-1.181-4.548-3.849-7.421-6.722c-0.965-0.965-1.901-1.952-2.765-2.892l6.782-6.782c0.962,0.862,1.96,1.793,2.911,2.745c2.957,2.958,5.508,6.083,6.635,7.508L40.853,38.274z M55.635,9.349c-1.073-1.074-3.178-1.065-4.242,0l-1.972,1.972c0.932,0.639,1.914,1.366,2.515,1.966c0.54,0.54,1.183,1.389,1.771,2.233l1.928-1.929C56.7,12.527,56.709,10.423,55.635,9.349z M55.104,13.415c-0.488,0.488-1.279,0.488-1.768,0s-0.488-1.279,0-1.768s1.279-0.488,1.768,0S55.593,12.927,55.104,13.415z M51.582,13.641c-0.95-0.95-2.694-2.375-3.739-3.211c-0.503-0.194-1.128-0.302-1.886-0.153c-1.536,0.301-3.284,1.384-4.473,2.231c-0.639-0.233-1.22-0.418-1.728-0.569c2.011,1.178,5.644,3.438,7.746,5.541c2.31,2.309,4.473,5.831,5.585,7.776c-0.15-0.534-0.342-1.154-0.59-1.837c0.854-1.229,1.935-2.993,2.209-4.392c0.152-0.776,0.076-1.378-0.084-1.86C53.773,16.111,52.47,14.528,51.582,13.641z"/>
</g>
</svg>